<?xml version="1.0" standalone="no"?>
<!DOCTYPE svg PUBLIC "-//W3C//DTD SVG 20010904//EN"
 "http://www.w3.org/TR/2001/REC-SVG-20010904/DTD/svg10.dtd">
<svg version="1.0" xmlns="http://www.w3.org/2000/svg"
 width="2048.000000pt" height="2048.000000pt" viewBox="0 0 2048.000000 2048.000000"
 preserveAspectRatio="xMidYMid meet">
<metadata>
Created by potrace 1.14, written by Peter Selinger 2001-2017
</metadata>
<g transform="translate(0.000000,2048.000000) scale(0.100000,-0.100000)"
fill="#000000" stroke="none">
<path d="M9675 20469 c-2156 -120 -4190 -904 -5872 -2261 -530 -427 -1104
-1001 -1531 -1531 -1265 -1567 -2023 -3416 -2226 -5427 -36 -350 -41 -482 -41
-1010 0 -528 5 -660 41 -1010 201 -1989 950 -3832 2188 -5380 448 -561 1017
-1133 1569 -1578 1514 -1222 3326 -1985 5242 -2207 465 -53 798 -69 1340 -62
429 5 550 11 860 42 1937 193 3748 915 5276 2102 539 419 1102 960 1545 1483
1268 1498 2094 3370 2333 5290 65 519 76 713 76 1320 0 528 -5 660 -41 1010
-201 1989 -950 3832 -2188 5380 -448 561 -1017 1133 -1569 1578 -1608 1298
-3537 2071 -5592 2241 -363 31 -1052 40 -1410 20z m-1101 -3733 c587 -82 1042
-301 1426 -686 445 -447 660 -960 660 -1577 0 -355 -68 -647 -224 -968 -282
-577 -802 -1072 -1621 -1543 -99 -57 -180 -107 -180 -111 0 -10 1927 -2439
1936 -2440 9 -1 113 233 184 414 107 272 202 586 280 919 19 82 36 151 39 153
5 5 1332 -278 1347 -288 7 -4 -5 -67 -36 -180 -216 -809 -473 -1444 -807
-1993 -43 -71 -78 -131 -78 -133 0 -8 158 -212 259 -333 387 -466 800 -863
1269 -1218 l132 -100 -426 -504 c-235 -277 -434 -511 -443 -521 -16 -17 -23
-13 -135 63 -448 306 -933 749 -1380 1260 -60 69 -117 134 -127 144 -17 19
-21 16 -139 -107 -635 -660 -1363 -1072 -2185 -1236 -263 -52 -421 -65 -780
-65 -365 -1 -487 9 -765 60 -536 98 -1022 315 -1430 640 -119 95 -409 388
-514 519 -452 570 -685 1215 -686 1902 -2 1275 804 2323 2403 3124 l158 80
-23 28 c-13 15 -89 106 -169 202 -416 498 -672 879 -815 1214 -166 389 -228
749 -193 1125 47 525 279 998 685 1404 452 452 998 701 1684 766 136 13 564 4
694 -14z m7766 -3861 l0 -745 -745 0 -745 0 0 745 0 745 745 0 745 0 0 -745z
m0 -6322 c0 -789 -6 -1008 -36 -1223 -88 -654 -345 -1096 -817 -1410 -135 -90
-355 -206 -367 -193 -4 4 -87 129 -184 277 l-176 269 82 44 c261 140 463 344
568 577 96 211 157 502 176 836 l7 120 -371 0 -372 0 0 745 0 745 745 0 745 0
0 -787z"/>
<path d="M7920 15679 c-487 -57 -903 -405 -1025 -859 -112 -419 3 -824 368
-1304 71 -94 661 -786 682 -800 36 -26 613 369 850 582 329 294 495 646 512
1082 15 396 -100 712 -346 959 -270 269 -631 387 -1041 340z"/>
<path d="M7239 11062 c-443 -270 -800 -542 -1059 -808 -198 -204 -306 -355
-425 -599 -208 -424 -245 -813 -118 -1260 118 -416 439 -924 743 -1175 352
-291 860 -431 1371 -380 734 75 1567 589 2011 1243 38 56 40 62 27 84 -28 47
-2384 2982 -2395 2983 -5 0 -75 -40 -155 -88z"/>
</g>
</svg>
